<?xml version="1.0" standalone="no"?>
<!DOCTYPE svg PUBLIC "-//W3C//DTD SVG 20010904//EN"
 "http://www.w3.org/TR/2001/REC-SVG-20010904/DTD/svg10.dtd">
<svg version="1.0" xmlns="http://www.w3.org/2000/svg"
 width="342.000000pt" height="342.000000pt" viewBox="0 0 342.000000 342.000000"
 preserveAspectRatio="xMidYMid meet">
<metadata>
Created by potrace 1.14, written by Peter Selinger 2001-2017
</metadata>
<g transform="translate(0.000000,342.000000) scale(0.100000,-0.100000)"
fill="#000000" stroke="none">
<path d="M1139 3345 c0 -11 -1 -124 -1 -251 l0 -232 -281 0 c-155 0 -294 -1
-308 -1 l-26 -1 0 -160 c0 -88 3 -160 6 -161 3 0 67 -1 141 -2 149 -3 181 -13
224 -70 21 -28 21 -32 21 -753 l0 -724 -28 -27 c-27 -28 -30 -28 -166 -31
l-139 -3 -11 -72 c-6 -40 -13 -85 -17 -102 -20 -103 -30 -176 -25 -183 3 -4
134 -7 291 -7 157 0 292 -1 302 -3 14 -3 16 -27 16 -225 0 -122 1 -235 1 -252
l1 -30 145 1 c80 0 148 3 151 7 4 3 6 116 6 250 l-1 244 122 -1 122 -1 1 -240
c0 -133 3 -245 6 -250 4 -6 67 -10 150 -9 l143 0 3 252 c2 191 5 252 15 253 6
0 19 2 27 3 8 2 49 6 90 10 41 3 86 8 100 11 14 2 43 6 65 10 52 7 106 21 180
46 196 67 338 195 397 359 36 101 43 147 43 285 0 121 -3 150 -24 214 -48 147
-165 256 -332 311 l-76 24 56 36 c134 87 202 222 203 399 1 236 -88 384 -289
485 -45 23 -126 53 -162 61 -133 29 -223 44 -268 45 l-23 0 0 249 c0 190 -3
250 -12 253 -11 3 -272 3 -288 -1 -3 -1 -5 -110 -5 -243 l0 -242 -121 -2 -122
-1 0 239 c0 132 -3 242 -7 246 -3 3 -71 6 -150 7 -138 0 -145 -1 -146 -20z
m731 -849 c193 -43 276 -119 287 -262 7 -90 -11 -144 -65 -199 -43 -43 -127
-87 -192 -100 -94 -19 -178 -27 -300 -29 l-150 -3 0 302 c0 166 2 304 5 307
13 12 343 0 415 -16z m40 -912 c204 -30 312 -89 366 -200 43 -89 33 -206 -24
-282 -56 -74 -195 -138 -342 -157 -102 -13 -185 -18 -312 -19 l-148 -1 0 338
0 338 183 -2 c100 0 225 -7 277 -15z"/>
</g>
</svg>
